<?xml version="1.0" encoding="utf-8"?><svg xmlns="http://www.w3.org/2000/svg" xmlns:xlink="http://www.w3.org/1999/xlink"><symbol viewBox="0 0 22 24" id="basket" xmlns="http://www.w3.org/2000/svg"><g clip-path="url(#aa)"><path d="M10.363 18.443a2.046 2.046 0 0 0-2.045 2.042 2.046 2.046 0 0 0 4.09 0 2.046 2.046 0 0 0-2.045-2.042Zm6.134 0a2.046 2.046 0 0 0-2.045 2.042 2.046 2.046 0 0 0 4.089 0 2.046 2.046 0 0 0-2.044-2.042Zm3.978-8.199L7.413 6.891a.614.614 0 0 0-.75.73L8.67 16.4h-.786L5.482 5.895a.613.613 0 0 0-.474-.464l-4.27-.882A.614.614 0 0 0 .489 5.75l3.885.802L6.797 17.15a.613.613 0 0 0 .598.477h12.07a.615.615 0 0 0 .607-.53l.858-6.175a.613.613 0 0 0-.455-.678Zm-8.14 3.91a.613.613 0 0 1-1.227 0v-2.696a.613.613 0 0 1 1.227 0v2.696Zm2.625 0a.613.613 0 0 1-1.227 0v-1.88a.613.613 0 0 1 1.227 0v1.88Zm2.625 0a.613.613 0 0 1-1.227 0v-1.226a.613.613 0 0 1 1.227 0v1.226Z"/></g><path fill-rule="evenodd" clip-rule="evenodd" d="M16.268 4.568a2.996 2.996 0 0 0-1.693-.523c-.627 0-1.21.193-1.693.523-.28-.843-.492-1.752-.492-2.383C12.39.98 13.37 0 14.575 0s2.185.98 2.185 2.185c0 .631-.212 1.54-.492 2.383Zm-4.722 2.274.024.006v-.011l-.024.005Zm4.972 1.217c-1.333-.33-2.766-.681-4.129-1.013a2.185 2.185 0 1 1 4.129 1.013Zm4.436 1.103c-.866-.217-2.155-.538-3.618-.9a2.995 2.995 0 0 0 .243-1.425c.87.18 1.762.45 2.308.765.596.344.969.928 1.067 1.56ZM9.869 6.439c-.36-.086-.706-.167-1.03-.243a2.19 2.19 0 0 1-.376-2.667 2.188 2.188 0 0 1 3.147-.7c.098.738.338 1.599.61 2.353a3.01 3.01 0 0 0-.449.774c-.628.113-1.305.278-1.902.483Zm10.124.075a3.43 3.43 0 0 1-.217.114c-.696-.295-1.587-.526-2.397-.672a3.01 3.01 0 0 0-.449-.774c.262-.727.494-1.553.599-2.273.095-.067.189-.128.278-.18a2.188 2.188 0 0 1 2.986.8 2.188 2.188 0 0 1-.8 2.985Z"/><defs><clipPath id="aa"><path transform="translate(0 3.064)" d="M0 0h20.936v20.936H0z"/></clipPath></defs></symbol><symbol viewBox="0 0 344.96 344.96" id="check" xmlns="http://www.w3.org/2000/svg"><g data-name="Слой 2"><path class="bcls-1" d="m321.85 86.24-40-23.11-23.1-40H212.5L172.48 0l-40 23.11H86.24l-23.11 40-40 23.1v46.21L0 172.48l23.11 40v46.21l40 23.11 23.11 40h46.21l40 23.1 40-23.11h46.21l23.11-40 40-23.11V212.5l23.11-40-23.11-40V86.24ZM156.91 243.07a16.79 16.79 0 0 1-23.34 0l-50.45-50.44a16.19 16.19 0 0 1 0-22.89l13.35-13.35a16.19 16.19 0 0 1 22.89 0l25.87 25.87 80.34-80.35a16.19 16.19 0 0 1 22.89 0l13.35 13.35a16.19 16.19 0 0 1 0 22.89Z" data-name="Capa 1"/></g></symbol><symbol viewBox="0 0 24 24" id="fb" xmlns="http://www.w3.org/2000/svg"><path d="M13.397 20.997v-8.196h2.765l.411-3.209h-3.176V7.548c0-.926.258-1.56 1.587-1.56h1.684v-2.86A22.108 22.108 0 0 0 14.201 3c-2.444 0-4.122 1.492-4.122 4.231v2.355H7.332v3.21h2.753v8.201h3.312Z"/></symbol><symbol viewBox="0 0 24 24" id="instagram" xmlns="http://www.w3.org/2000/svg"><path d="M11.999 7.377a4.624 4.624 0 1 0 0 9.248 4.624 4.624 0 0 0 0-9.248Zm0 7.627a3.004 3.004 0 1 1 0-6.008 3.004 3.004 0 0 1 0 6.008Zm4.807-6.719a1.078 1.078 0 1 0 0-2.156 1.078 1.078 0 0 0 0 2.156Z"/><path d="M20.533 6.11A4.605 4.605 0 0 0 17.9 3.48a6.607 6.607 0 0 0-2.186-.42c-.963-.042-1.268-.054-3.71-.054s-2.755 0-3.71.054a6.554 6.554 0 0 0-2.184.42 4.6 4.6 0 0 0-2.633 2.63 6.585 6.585 0 0 0-.419 2.186c-.043.962-.056 1.267-.056 3.71 0 2.442 0 2.753.056 3.71.015.748.156 1.486.419 2.187a4.61 4.61 0 0 0 2.634 2.632 6.583 6.583 0 0 0 2.185.45c.963.042 1.268.055 3.71.055s2.755 0 3.71-.055a6.616 6.616 0 0 0 2.186-.42 4.613 4.613 0 0 0 2.633-2.632c.263-.7.404-1.438.419-2.186.043-.962.056-1.267.056-3.71s0-2.753-.056-3.71a6.583 6.583 0 0 0-.421-2.217Zm-1.218 9.533a5.046 5.046 0 0 1-.311 1.688 2.987 2.987 0 0 1-1.712 1.71c-.535.2-1.1.305-1.67.312-.95.044-1.218.055-3.654.055-2.438 0-2.687 0-3.655-.055a4.961 4.961 0 0 1-1.67-.311 2.984 2.984 0 0 1-1.718-1.711 5.08 5.08 0 0 1-.311-1.67c-.043-.95-.053-1.217-.053-3.653 0-2.437 0-2.686.053-3.655a5.038 5.038 0 0 1 .311-1.687c.305-.79.93-1.41 1.719-1.712a5.01 5.01 0 0 1 1.669-.311c.95-.043 1.218-.055 3.655-.055s2.687 0 3.654.055a4.96 4.96 0 0 1 1.67.31 2.99 2.99 0 0 1 1.712 1.713 5.06 5.06 0 0 1 .311 1.669c.043.95.054 1.218.054 3.655 0 2.436 0 2.698-.043 3.654h-.011v-.001Z"/></symbol><symbol viewBox="0 0 26 28" id="site" xmlns="http://www.w3.org/2000/svg"><path d="M25.453 22.692a1.786 1.786 0 0 0-1.49-.853l-.81-1.337-.253-5.16a3.284 3.284 0 0 0-.3-1.22l-1.14-2.462a.548.548 0 0 0-.994.46l1.139 2.462c.119.257.186.531.2.815l.26 5.297a.55.55 0 0 0 .079.257l.74 1.225a1.78 1.78 0 0 0-.682.999 1.777 1.777 0 0 0-1.318.22 1.775 1.775 0 0 0-.796 1.073 1.77 1.77 0 0 0-1.115.115l-.75-1.269a.548.548 0 0 0-.218-.206c-.034-.018-3.394-1.825-3.284-6.054v-.013l.008-4.24a.899.899 0 0 1 .706-.873.89.89 0 0 1 1.053.641l.383 2.632a.548.548 0 1 0 1.084-.158s-.393-2.694-.397-2.711a2.01 2.01 0 0 0-.315-.692l-.007-.022-2.008-5.768a1.067 1.067 0 0 1 .624-1.365 1.068 1.068 0 0 1 1.34.549l1.21 2.625a.548.548 0 1 0 .996-.458l-1.21-2.627a2.169 2.169 0 0 0-2.722-1.114 2.158 2.158 0 0 0-1.268 2.763l1.599 4.594a2.007 2.007 0 0 0-1.723.734 2 2 0 0 0-.441 1.249l-.008 4.232c-.064 2.557.984 4.333 1.876 5.373a7.842 7.842 0 0 0 1.852 1.591l.793 1.342A1.788 1.788 0 0 0 19.707 28c.326 0 .646-.09.93-.264.397-.243.678-.624.795-1.073a1.777 1.777 0 0 0 1.317-.22 1.78 1.78 0 0 0 .795-1.075 1.776 1.776 0 0 0 1.318-.22 1.788 1.788 0 0 0 .59-2.456Zm-5.077 3.682a.686.686 0 0 1-.311.428.686.686 0 0 1-.522.082.686.686 0 0 1-.428-.31.686.686 0 0 1-.082-.523.687.687 0 0 1 1.26-.2.686.686 0 0 1 .083.523Zm1.802-.866a.691.691 0 0 1-.722-1.178.686.686 0 0 1 .522-.083.691.691 0 0 1 .2 1.26Zm2.112-1.294a.692.692 0 1 1-.72-1.18.692.692 0 0 1 .72 1.18ZM12.85 0a.548.548 0 0 0-.547.548v1.398a.548.548 0 0 0 1.096 0V.548A.548.548 0 0 0 12.85 0ZM7.244 2.126a.548.548 0 1 0 .95-.548l-.7-1.21a.548.548 0 1 0-.949.548l.7 1.21Zm10.466.201a.545.545 0 0 0 .748-.201l.699-1.21a.548.548 0 0 0-.949-.549l-.699 1.211a.548.548 0 0 0 .2.749ZM12.083 12.8a2 2 0 0 0-.443-1.25 2.005 2.005 0 0 0-1.722-.733l1.6-4.594a2.158 2.158 0 0 0-1.269-2.763 2.169 2.169 0 0 0-2.721 1.115l-4.412 9.547c-.178.385-.28.796-.3 1.221l-.253 5.16-.81 1.337a1.786 1.786 0 1 0 .418 3.528 1.78 1.78 0 0 0 2.112 1.294A1.78 1.78 0 0 0 6.008 28a1.775 1.775 0 0 0 1.527-.854 1.775 1.775 0 0 0 .034-1.808l.793-1.341a7.838 7.838 0 0 0 1.852-1.591c.892-1.04 1.94-2.816 1.876-5.373l-.007-4.233ZM1.425 24.214a.692.692 0 0 1 .722-1.178.692.692 0 0 1-.722 1.178Zm2.113 1.294a.692.692 0 1 1 .724-1.179.692.692 0 0 1-.724 1.179ZM6.6 26.573a.686.686 0 0 1-.427.311.692.692 0 1 1 .2-1.26h-.001a.686.686 0 0 1 .31.427.686.686 0 0 1-.082.522Zm2.81-4.914c-.83.982-1.692 1.445-1.7 1.449a.548.548 0 0 0-.217.206l-.75 1.269a1.772 1.772 0 0 0-1.116-.115 1.774 1.774 0 0 0-.795-1.073 1.774 1.774 0 0 0-1.318-.22 1.78 1.78 0 0 0-.683-1l.74-1.224a.548.548 0 0 0 .08-.256l.075-1.531.184-3.767c.014-.284.082-.558.2-.816l4.412-9.546a1.068 1.068 0 0 1 1.34-.55 1.071 1.071 0 0 1 .622 1.374l-2.005 5.76-.006.021a2.009 2.009 0 0 0-.316.692c-.004.017-.397 2.711-.397 2.711a.548.548 0 0 0 1.085.158l.383-2.632a.89.89 0 0 1 1.053-.641.891.891 0 0 1 .706.874l.007 4.24v.012c.046 1.76-.487 3.31-1.583 4.605Z"/><path d="M19.916 10.216a.548.548 0 1 0 0-1.096.548.548 0 0 0 0 1.096Z"/></symbol><symbol viewBox="0 0 27 27" id="telegram" xmlns="http://www.w3.org/2000/svg"><g clip-path="url(#fa)"><path d="M26.723.276a.942.942 0 0 0-1.015-.209L.592 10.114a.942.942 0 0 0 .087 1.779l11.182 3.246 3.245 11.182a.942.942 0 0 0 .86.68h.045a.941.941 0 0 0 .874-.593L26.932 1.292a.943.943 0 0 0-.209-1.016ZM16.153 23.17l-2.473-8.52 2.597-2.595a.943.943 0 1 0-1.334-1.334l-2.598 2.597-8.516-2.472 20.538-8.215-8.215 20.538Z"/><path d="M17.65 8.835c.026.056.055.11.088.163.036.05.076.1.12.144a.887.887 0 0 0 .144.12c.052.033.107.062.163.088.058.02.116.037.176.05a.942.942 0 0 0 .703-1.708.774.774 0 0 0-.163-.082.89.89 0 0 0-.716 0 .793.793 0 0 0-.308.201 1.328 1.328 0 0 0-.119.145 1.348 1.348 0 0 0-.088.163 1.34 1.34 0 0 0-.05.176.89.89 0 0 0 0 .364c.013.06.03.118.05.176Z"/></g><defs><clipPath id="fa"><path d="M0 0h27v27H0z"/></clipPath></defs></symbol><symbol viewBox="0 0 16 16" id="viber" xmlns="http://www.w3.org/2000/svg"><path d="M8 1.335c-1.071.013-3.374.19-4.662 1.37-.958.948-1.292 2.35-1.331 4.084-.033 1.728-.072 4.973 3.058 5.856v1.346s-.02.538.337.648c.438.14.688-.275 1.105-.72l.778-.879c2.142.178 3.782-.232 3.97-.293.435-.139 2.883-.451 3.283-3.696.41-3.351-.2-5.463-1.301-6.418h-.007c-.332-.306-1.668-1.279-4.652-1.29 0 0-.222-.014-.578-.008Zm.037.942a7.02 7.02 0 0 1 .488.011c2.527.007 3.732.767 4.017 1.023.927.794 1.405 2.697 1.055 5.495-.332 2.713-2.317 2.885-2.685 3.002-.156.05-1.6.406-3.42.289 0 0-1.356 1.634-1.78 2.055-.067.074-.146.095-.196.085-.071-.018-.093-.107-.089-.229l.013-2.233c-2.655-.733-2.498-3.5-2.47-4.946.033-1.446.304-2.628 1.113-3.43 1.088-.982 3.043-1.115 3.953-1.122Zm.2 1.446a.166.166 0 1 0 0 .332 3.136 3.136 0 0 1 2.242.883c.606.588.9 1.378.912 2.411 0 .092.074.167.167.167V7.51a.167.167 0 0 0 .168-.165 3.588 3.588 0 0 0-1.009-2.646c-.66-.645-1.496-.977-2.48-.977Zm-2.198.382a.523.523 0 0 0-.342.067H5.69a2.61 2.61 0 0 0-.637.523 1.003 1.003 0 0 0-.256.525.71.71 0 0 0 .026.302l.01.006c.172.504.396.988.67 1.444a8.48 8.48 0 0 0 1.29 1.762l.015.022.024.017.015.018.017.015c.532.505 1.127.94 1.769 1.295.734.4 1.18.588 1.447.667v.004c.078.024.15.034.221.034.228-.016.444-.109.613-.262a2.53 2.53 0 0 0 .517-.638v-.004c.128-.241.085-.469-.1-.623-.37-.323-.77-.61-1.195-.857-.285-.155-.574-.061-.69.095l-.25.315c-.129.156-.361.134-.361.134l-.007.004C7.093 8.527 6.63 6.772 6.63 6.772s-.022-.239.139-.36l.312-.252c.15-.122.254-.41.094-.695a7.498 7.498 0 0 0-.856-1.194.475.475 0 0 0-.28-.167Zm2.486.495c-.221 0-.221.334.003.334A2.098 2.098 0 0 1 10 5.572 1.94 1.94 0 0 1 10.5 7a.168.168 0 0 0 .167.165l.007.009a.169.169 0 0 0 .167-.167c.015-.662-.191-1.218-.595-1.663C9.84 4.9 9.273 4.65 8.549 4.6h-.024Zm.274.898c-.228-.006-.236.335-.01.341.55.029.816.306.851.877a.166.166 0 0 0 .165.163h.007a.168.168 0 0 0 .16-.178c-.039-.744-.445-1.164-1.166-1.202H8.8Z"/></symbol><symbol viewBox="0 0 24 24" id="vk" xmlns="http://www.w3.org/2000/svg"><path d="M21.579 6.855c.14-.465 0-.806-.662-.806h-2.193c-.558 0-.813.295-.953.619 0 0-1.115 2.719-2.695 4.482-.51.513-.743.675-1.021.675-.139 0-.341-.162-.341-.627V6.855c0-.558-.161-.806-.626-.806H9.642c-.348 0-.558.258-.558.504 0 .528.79.65.871 2.138v3.228c0 .707-.127.836-.407.836-.743 0-2.551-2.73-3.624-5.853-.209-.607-.42-.852-.98-.852H2.752c-.627 0-.752.295-.752.619 0 .582.743 3.462 3.461 7.27 1.812 2.602 4.363 4.012 6.687 4.012 1.393 0 1.565-.313 1.565-.853v-1.966c0-.626.133-.752.574-.752.324 0 .882.164 2.183 1.417 1.486 1.486 1.732 2.153 2.567 2.153h2.192c.626 0 .939-.313.759-.931-.197-.615-.907-1.51-1.849-2.57-.512-.603-1.277-1.253-1.51-1.578-.325-.42-.231-.604 0-.976.001 0 2.672-3.761 2.95-5.04Z"/></symbol><symbol viewBox="0 0 27 27" id="whatsapp" xmlns="http://www.w3.org/2000/svg"><g clip-path="url(#ia)"><path d="M14.455 23.135a1.358 1.358 0 0 0-.088-.165 1.346 1.346 0 0 0-.12-.145.99.99 0 0 0-.857-.26 1.022 1.022 0 0 0-.488.26.965.965 0 0 0-.279.678.91.91 0 0 0 .075.361.833.833 0 0 0 .204.311c.137.13.305.219.488.26a.952.952 0 0 0 1.116-1.123 1.708 1.708 0 0 0-.05-.177Z"/><path d="M13.575 0a12.226 12.226 0 0 0-8.703 20.814v5.505a.951.951 0 0 0 1.624.673l3.608-3.608a.95.95 0 1 0-1.346-1.346l-1.983 1.984v-3.608a.952.952 0 0 0-.298-.691 10.213 10.213 0 0 1-3.226-7.497 10.323 10.323 0 1 1 14.296 9.532.953.953 0 0 0 .735 1.756A12.228 12.228 0 0 0 13.575 0Z"/><path d="M17.64 15.511a1.872 1.872 0 0 0-1.822-2.303h-1.606a.95.95 0 0 0-.25.033l-1.484-1.474a.964.964 0 0 0 .035-.258V9.903a1.881 1.881 0 0 0-.548-1.324l-.146-.146a1.888 1.888 0 0 0-2.647 2.693l5.29 5.29a1.852 1.852 0 0 0 1.316.546c.215 0 .43-.036.634-.105a1.86 1.86 0 0 0 1.229-1.346Zm-7.03-5.596-.136-.136.137.126v.01Z"/></g><defs><clipPath id="ia"><path d="M0 0h27v27H0z"/></clipPath></defs></symbol></svg>