<svg width="26" height="28" viewBox="0 0 26 28" fill="none" xmlns="http://www.w3.org/2000/svg">
<path d="M25.4529 22.6915C25.123 22.1528 24.5514 21.8512 23.9624 21.8394L23.153 20.502L22.8999 15.3428C22.8788 14.9179 22.7777 14.507 22.5994 14.1215L21.4608 11.6599C21.3337 11.3854 21.0081 11.2655 20.7334 11.3927C20.4588 11.5197 20.3391 11.8454 20.4662 12.12L21.6048 14.5815C21.7238 14.8388 21.7913 15.1134 21.8054 15.3969L22.0652 20.6944C22.0697 20.7851 22.0967 20.8733 22.1437 20.9511L22.8849 22.1758C22.5371 22.4261 22.3036 22.7833 22.2017 23.1746C21.7479 23.0742 21.281 23.1517 20.8836 23.3952C20.4864 23.6385 20.2053 24.0188 20.0883 24.4683C19.7095 24.3847 19.3218 24.4253 18.9729 24.5828L18.2227 23.3142C18.1708 23.2264 18.0954 23.1548 18.005 23.1075C17.971 23.0897 14.6113 21.2833 14.7207 17.054C14.7208 17.0497 14.7209 17.0453 14.7209 17.0409L14.7285 12.8014C14.7289 12.5975 14.7994 12.3979 14.926 12.2411C15.0571 12.0798 15.233 11.9714 15.4345 11.9278C15.9047 11.8263 16.3629 12.1069 16.4877 12.5693L16.8706 15.2006C16.9142 15.5001 17.1919 15.7074 17.4917 15.6639C17.7912 15.6204 17.9986 15.3423 17.955 15.0429C17.955 15.0429 17.5622 12.3488 17.5581 12.332C17.4954 12.0748 17.3865 11.8421 17.2427 11.6401C17.2405 11.6329 17.2389 11.6257 17.2364 11.6185C17.2364 11.6185 15.229 5.85257 15.228 5.84973C15.1845 5.73106 15.1623 5.60713 15.1623 5.48152C15.1623 5.04128 15.4397 4.64081 15.8523 4.48506C16.3711 4.28982 16.96 4.53105 17.1926 5.03379L18.4028 7.65945C18.5295 7.93425 18.8549 8.05445 19.1298 7.92774C19.4046 7.80109 19.5247 7.47559 19.398 7.20078L18.1875 4.57436C17.7146 3.55263 16.5192 3.06296 15.4656 3.45972C14.6286 3.77565 14.0663 4.58814 14.0663 5.48157C14.0663 5.73477 14.1104 5.98415 14.1974 6.22281L15.797 10.8174C15.6032 10.8013 15.4034 10.8133 15.2026 10.8567C14.7615 10.9522 14.3611 11.1983 14.0741 11.5514C13.7901 11.9036 13.6333 12.3469 13.6325 12.7995L13.6249 17.0324C13.5606 19.5894 14.6094 21.3654 15.501 22.4054C16.2636 23.2949 17.0389 23.8085 17.3529 23.9965L18.146 25.3377C18.0666 25.4795 18.0058 25.6328 17.9669 25.7951C17.8553 26.2591 17.9312 26.7388 18.1805 27.1457C18.4297 27.5527 18.8225 27.8382 19.2865 27.9497C19.4262 27.9832 19.5672 27.9999 19.7073 27.9999C20.0326 27.9998 20.3527 27.9103 20.6371 27.736C21.0344 27.4927 21.3155 27.1124 21.4324 26.6628C21.5611 26.6912 21.6909 26.7059 21.8198 26.7059C22.1451 26.7058 22.4652 26.6163 22.7497 26.4421C23.1597 26.191 23.4322 25.7998 23.5444 25.3675C23.6714 25.3956 23.8013 25.4107 23.9321 25.4107C24.25 25.4107 24.5718 25.326 24.8623 25.1481C25.7026 24.6337 25.9675 23.5316 25.4529 22.6915ZM20.3759 26.3741C20.3328 26.5534 20.2224 26.7054 20.065 26.8017C19.9078 26.8981 19.7223 26.9274 19.5429 26.8843C19.3635 26.8412 19.2116 26.7308 19.1152 26.5734C19.0189 26.4161 18.9896 26.2307 19.0327 26.0513C19.0757 25.8719 19.1862 25.72 19.3434 25.6236H19.3435C19.4535 25.5563 19.5772 25.5216 19.703 25.5216C19.7571 25.5216 19.8116 25.528 19.8657 25.5411C20.045 25.5841 20.197 25.6945 20.2933 25.8519C20.3897 26.0092 20.419 26.1946 20.3759 26.3741ZM22.1776 25.5077C21.8528 25.7066 21.4268 25.6043 21.2278 25.2794C21.1315 25.1221 21.1021 24.9366 21.1452 24.7573C21.1883 24.5778 21.2987 24.426 21.456 24.3296H21.4561C21.5661 24.2622 21.6898 24.2276 21.8156 24.2276C21.8697 24.2276 21.9243 24.234 21.9782 24.247C22.1576 24.2901 22.3095 24.4005 22.4058 24.5579C22.6048 24.8827 22.5024 25.3088 22.1776 25.5077ZM24.2902 24.2137C23.9654 24.4126 23.5393 24.3103 23.3403 23.9855C23.1414 23.6607 23.2438 23.2346 23.5685 23.0356C23.8934 22.8368 24.3195 22.9391 24.5184 23.2638C24.7174 23.5887 24.615 24.0148 24.2902 24.2137Z" fill="#E2D1BD"/>
<path d="M12.8506 0C12.548 0 12.3027 0.245328 12.3027 0.547914V1.94584C12.3027 2.24842 12.5481 2.49375 12.8506 2.49375C13.1533 2.49375 13.3986 2.24842 13.3986 1.94584V0.547914C13.3986 0.245328 13.1533 0 12.8506 0Z" fill="#E2D1BD"/>
<path d="M7.24415 2.12641C7.34565 2.30217 7.52978 2.4005 7.71917 2.4005C7.81213 2.4005 7.90636 2.37682 7.9926 2.327C8.25467 2.17568 8.34446 1.84061 8.19314 1.57849L7.49424 0.367822C7.34292 0.10576 7.00779 0.0159081 6.74573 0.167283C6.48367 0.318603 6.39387 0.653674 6.54519 0.915791L7.24415 2.12641Z" fill="#E2D1BD"/>
<path d="M17.7096 2.32654C17.7959 2.37636 17.8901 2.40004 17.983 2.40004C18.1724 2.40004 18.3566 2.30177 18.458 2.12595L19.157 0.915278C19.3083 0.653216 19.2185 0.318091 18.9565 0.166771C18.6943 0.0154502 18.3593 0.105247 18.208 0.36731L17.5091 1.57809C17.3577 1.84015 17.4475 2.17522 17.7096 2.32654Z" fill="#E2D1BD"/>
<path d="M12.0828 12.7997C12.0821 12.347 11.9252 11.9037 11.6399 11.55C11.3543 11.1985 10.9539 10.9523 10.5126 10.8567C10.3119 10.8133 10.1122 10.8012 9.91845 10.8173L11.518 6.22279C11.605 5.98408 11.649 5.73476 11.649 5.48161C11.649 4.58818 11.0867 3.77569 10.2493 3.4596C9.19619 3.06306 8.00072 3.55273 7.52773 4.57467L3.11598 14.1216C2.93781 14.5071 2.83669 14.9179 2.81553 15.3434L2.56254 20.5021L1.75317 21.8395C1.16407 21.8513 0.592534 22.1529 0.262605 22.6915C-0.251895 23.5317 0.0129564 24.6337 0.853011 25.1483C1.14351 25.3262 1.46524 25.4109 1.78319 25.4109C1.91389 25.4109 2.04378 25.3957 2.17076 25.3677C2.28298 25.7999 2.55549 26.1911 2.96548 26.4422C3.25593 26.6201 3.57771 26.7049 3.89571 26.7049C4.02642 26.7049 4.15635 26.6898 4.28334 26.6617C4.39556 27.0939 4.66807 27.4851 5.07806 27.7362C5.36254 27.9105 5.68257 28 6.00796 28C6.14802 28 6.28911 27.9834 6.42873 27.9499C6.89275 27.8384 7.28557 27.5528 7.53478 27.1459C7.78405 26.739 7.85996 26.2593 7.74845 25.7953C7.70946 25.633 7.6487 25.4796 7.56935 25.3378L8.36237 23.9967C8.6765 23.8087 9.45175 23.2951 10.2143 22.4056C11.1059 21.3656 12.1547 19.5896 12.0904 17.0325L12.0828 12.7997ZM1.42537 24.2138C1.10058 24.0148 0.998206 23.5888 1.1971 23.2639C1.32726 23.0514 1.55465 22.9341 1.78729 22.9341C1.91023 22.9341 2.03464 22.9669 2.14692 23.0356C2.47171 23.2346 2.57408 23.6607 2.37518 23.9855C2.17623 24.3104 1.75011 24.4126 1.42537 24.2138ZM3.53795 25.5077C3.21316 25.3088 3.11078 24.8827 3.30968 24.5579C3.4061 24.4005 3.55796 24.2902 3.73734 24.247C3.79132 24.2341 3.84584 24.2277 3.89998 24.2277C4.02576 24.2277 4.14952 24.2623 4.25955 24.3297C4.41689 24.426 4.52725 24.5779 4.57034 24.7573C4.61349 24.9367 4.58412 25.1221 4.48776 25.2795C4.28875 25.6044 3.86257 25.7066 3.53795 25.5077ZM6.60029 26.5734C6.50393 26.7308 6.352 26.8412 6.17263 26.8843C5.99325 26.9275 5.80781 26.8981 5.65047 26.8017C5.32568 26.6027 5.22325 26.1767 5.42221 25.8519C5.51857 25.6945 5.67049 25.5841 5.84986 25.541C5.90384 25.528 5.95836 25.5216 6.0125 25.5216C6.13829 25.5216 6.26204 25.5562 6.37196 25.6236H6.37202C6.52936 25.72 6.63971 25.8718 6.68281 26.0513C6.72601 26.2306 6.69664 26.4162 6.60029 26.5734ZM9.41051 21.6591C8.57959 22.6406 7.71777 23.1037 7.7105 23.1076C7.6201 23.1548 7.54468 23.2264 7.49273 23.3142L6.74253 24.5829C6.39357 24.4255 6.00594 24.3848 5.62707 24.4684C5.51014 24.0188 5.22905 23.6385 4.83185 23.3953C4.43433 23.1518 3.96752 23.0743 3.51367 23.1747C3.41178 22.7834 3.17821 22.4262 2.83051 22.1759L3.57169 20.9512C3.61872 20.8734 3.64568 20.7853 3.65017 20.6945L3.72585 19.1636L3.90999 15.3974C3.9241 15.1134 3.99164 14.8389 4.11064 14.5815L8.52228 5.03482C8.7553 4.53131 9.34412 4.29003 9.86261 4.4851C10.2756 4.64096 10.553 5.04149 10.553 5.48172C10.553 5.60728 10.5309 5.73121 10.4874 5.84993C10.4863 5.85278 10.4853 5.85567 10.4843 5.85857L8.47896 11.6188C8.47645 11.626 8.47481 11.6332 8.47262 11.6405C8.32879 11.8424 8.21991 12.0751 8.15724 12.3322C8.15314 12.349 7.76032 15.0431 7.76032 15.0431C7.71678 15.3425 7.92421 15.6206 8.22363 15.6642C8.5231 15.7082 8.80118 15.5004 8.84477 15.2008L9.22764 12.5695C9.35243 12.1072 9.81039 11.8263 10.2807 11.928C10.4824 11.9716 10.6583 12.08 10.7881 12.2397C10.9159 12.3981 10.9865 12.5977 10.9868 12.8018L10.9944 17.0411C10.9944 17.0454 10.9945 17.0498 10.9946 17.0543C11.0403 18.8143 10.5073 20.3636 9.41051 21.6591Z" fill="#E2D1BD"/>
<path d="M19.9161 10.2159C20.2187 10.2159 20.464 9.97064 20.464 9.66803C20.464 9.36543 20.2187 9.12012 19.9161 9.12012C19.6135 9.12012 19.3682 9.36543 19.3682 9.66803C19.3682 9.97064 19.6135 10.2159 19.9161 10.2159Z" fill="#E2D1BD"/>
</svg>
