<svg width="27" height="27" viewBox="0 0 27 27" fill="none" xmlns="http://www.w3.org/2000/svg">
<g id="Telegram 1" clip-path="url(#clip0_689_475)">
<g id="Group">
<path id="Vector" d="M26.7234 0.276403C26.5932 0.146057 26.4276 0.0567724 26.2471 0.0196068C26.0666 -0.0175587 25.8792 -0.000972938 25.7081 0.0673102L0.591815 10.1138C0.40979 10.1867 0.255044 10.3146 0.149157 10.4796C0.0432708 10.6446 -0.00847648 10.8385 0.00113203 11.0344C0.0107405 11.2302 0.0812258 11.4182 0.202758 11.572C0.32429 11.7259 0.49081 11.838 0.679095 11.8927L11.8609 15.139L15.1065 26.3207C15.161 26.5094 15.2731 26.6763 15.4271 26.7981C15.5811 26.9199 15.7694 26.9906 15.9655 27.0001C15.9806 27.0001 15.9963 27.0001 16.0113 27.0001C16.1995 27 16.3833 26.9436 16.5391 26.838C16.6949 26.7325 16.8155 26.5827 16.8854 26.408L26.9319 1.29173C27.0002 1.12065 27.0169 0.933278 26.9799 0.752811C26.9428 0.572344 26.8537 0.406706 26.7234 0.276403ZM16.1526 23.1699L13.6805 14.6511L16.2782 12.0559C16.3658 11.9683 16.4353 11.8643 16.4827 11.7498C16.5301 11.6354 16.5545 11.5127 16.5545 11.3888C16.5545 11.2649 16.5301 11.1422 16.4827 11.0277C16.4353 10.9133 16.3658 10.8092 16.2782 10.7216C16.1906 10.634 16.0866 10.5645 15.9721 10.5171C15.8576 10.4697 15.7349 10.4453 15.611 10.4453C15.4871 10.4453 15.3644 10.4697 15.25 10.5171C15.1355 10.5645 15.0315 10.634 14.9439 10.7216L12.3462 13.3193L3.82993 10.8466L24.3675 2.63231L16.1526 23.1699Z" fill="white"/>
<path id="Vector_2" d="M17.6501 8.83465C17.6756 8.89102 17.705 8.94557 17.738 8.99791C17.7743 9.0488 17.8142 9.09706 17.8573 9.14233C17.9011 9.18709 17.9495 9.22708 18.0017 9.26163C18.0541 9.29464 18.1086 9.32401 18.165 9.34954C18.2225 9.37 18.2812 9.38678 18.3408 9.39977C18.4007 9.41256 18.4617 9.41888 18.5229 9.41861C18.7726 9.41839 19.012 9.31901 19.1885 9.14233C19.3643 8.96525 19.4635 8.72624 19.4648 8.47675C19.465 8.41555 19.4587 8.3545 19.4459 8.29465C19.4329 8.23504 19.4162 8.17632 19.3957 8.11884C19.3702 8.06247 19.3408 8.00792 19.3078 7.95558C19.2715 7.90469 19.2316 7.85643 19.1885 7.81116C19.1431 7.76788 19.0947 7.72801 19.0434 7.69186C18.9926 7.65835 18.938 7.63095 18.8808 7.61023C18.8245 7.58485 18.7655 7.56589 18.705 7.55372C18.5849 7.52861 18.4609 7.52861 18.3408 7.55372C18.2803 7.56589 18.2213 7.58485 18.165 7.61023C18.1076 7.63107 18.0528 7.65846 18.0017 7.69186C17.9495 7.72641 17.9011 7.7664 17.8573 7.81116C17.8142 7.85643 17.7743 7.90469 17.738 7.95558C17.705 8.00792 17.6756 8.06247 17.6501 8.11884C17.6294 8.17622 17.6126 8.23497 17.5999 8.29465C17.5748 8.41475 17.5748 8.53874 17.5999 8.65884C17.6126 8.71852 17.6294 8.77727 17.6501 8.83465Z" fill="white"/>
</g>
</g>
<defs>
<clipPath id="clip0_689_475">
<rect width="27" height="27" fill="white"/>
</clipPath>
</defs>
</svg>
