<svg width="27" height="27" viewBox="0 0 27 27" fill="none" xmlns="http://www.w3.org/2000/svg">
<g id="WhatsApp icon" clip-path="url(#clip0_689_469)">
<g id="Group">
<path id="Vector" d="M14.4552 23.1352C14.4297 23.0783 14.4002 23.0232 14.3671 22.9703C14.3304 22.9189 14.2901 22.8702 14.2466 22.8245C14.1343 22.7169 13.9983 22.6374 13.8495 22.5922C13.7008 22.547 13.5435 22.5375 13.3904 22.5644C13.2683 22.5917 13.1522 22.6411 13.048 22.7103C12.9967 22.7448 12.9479 22.7829 12.9021 22.8245C12.7234 23.0051 12.6231 23.2489 12.623 23.503C12.6232 23.6274 12.6489 23.7505 12.6985 23.8645C12.72 23.9224 12.7479 23.9777 12.7816 24.0294C12.8181 24.081 12.8583 24.1297 12.9021 24.1753C13.0386 24.3042 13.2073 24.394 13.3904 24.4353C13.4509 24.4482 13.5125 24.4546 13.5743 24.4543C13.8265 24.4541 14.0683 24.3537 14.2466 24.1753C14.3578 24.0642 14.4398 23.9273 14.4851 23.7768C14.5305 23.6262 14.5379 23.4668 14.5066 23.3128C14.4927 23.2527 14.4755 23.1934 14.4552 23.1352Z" fill="white"/>
<path id="Vector_2" d="M13.5745 5.34343e-08C11.1633 0.000127081 8.80604 0.713179 6.79904 2.04949C4.79205 3.38579 3.22497 5.28569 2.29488 7.51025C1.3648 9.73482 1.11322 12.1847 1.57181 14.5519C2.03039 16.9191 3.17865 19.0978 4.87218 20.8141V26.3188C4.87222 26.5069 4.92801 26.6908 5.0325 26.8471C5.13699 27.0035 5.2855 27.1254 5.45924 27.1974C5.63299 27.2694 5.82418 27.2883 6.00866 27.2517C6.19314 27.2151 6.36263 27.1246 6.4957 26.9917L10.1036 23.3838C10.2821 23.2054 10.3824 22.9635 10.3824 22.7112C10.3825 22.4588 10.2823 22.2168 10.1039 22.0384C9.92555 21.8599 9.68359 21.7596 9.43127 21.7596C9.17895 21.7595 8.93695 21.8597 8.75849 22.0381L6.77475 24.0224V20.4139C6.77471 20.2845 6.74825 20.1564 6.697 20.0375C6.64575 19.9187 6.57078 19.8115 6.47668 19.7226C5.45261 18.7619 4.63764 17.6003 4.08267 16.3104C3.5277 15.0205 3.24465 13.6301 3.25119 12.2259C3.25194 10.3576 3.75966 8.52462 4.72023 6.92222C5.6808 5.31983 7.05821 4.00815 8.70561 3.127C10.353 2.24586 12.2087 1.82829 14.0747 1.91881C15.9408 2.00934 17.7473 2.60456 19.3017 3.64102C20.856 4.67748 22.1 6.11633 22.901 7.80417C23.7019 9.49201 24.0299 11.3656 23.8498 13.2251C23.6697 15.0847 22.9883 16.8605 21.8784 18.3633C20.7684 19.8661 19.2715 21.0395 17.5471 21.7584C17.4318 21.8066 17.3272 21.8771 17.2391 21.9657C17.1511 22.0544 17.0814 22.1595 17.034 22.2751C16.9866 22.3907 16.9624 22.5145 16.9628 22.6395C16.9633 22.7644 16.9883 22.888 17.0366 23.0033C17.0848 23.1186 17.1552 23.2232 17.2439 23.3112C17.3325 23.3993 17.4377 23.469 17.5533 23.5164C17.6689 23.5638 17.7927 23.588 17.9176 23.5875C18.0426 23.5871 18.1662 23.562 18.2815 23.5138C20.8904 22.426 23.0418 20.468 24.3699 17.9727C25.6979 15.4775 26.1204 12.5993 25.5656 9.82767C25.0108 7.05605 23.5129 4.56225 21.3267 2.7705C19.1405 0.978753 16.4011 -0.000264085 13.5745 5.34343e-08Z" fill="white"/>
<path id="Vector_3" d="M17.6408 15.511C17.7056 15.236 17.7073 14.9499 17.6458 14.6741C17.5844 14.3983 17.4614 14.14 17.286 13.9185C17.1107 13.697 16.8875 13.518 16.6332 13.3949C16.3789 13.2718 16.1001 13.2077 15.8175 13.2076H14.2118C14.1276 13.2075 14.0438 13.2186 13.9625 13.2406L12.4779 11.7674C12.5014 11.6831 12.5134 11.5961 12.5134 11.5086V9.90286C12.5123 9.40658 12.3151 8.93085 11.9648 8.57931L11.819 8.43344C11.4619 8.08241 10.98 7.88761 10.4793 7.8919C9.97857 7.89618 9.50007 8.09919 9.14904 8.45627C8.79801 8.81336 8.60321 9.29526 8.60749 9.79597C8.61177 10.2967 8.81479 10.7752 9.17187 11.1262L14.4616 16.4166C14.6341 16.5899 14.8392 16.7274 15.065 16.821C15.2909 16.9146 15.5331 16.9625 15.7776 16.962C15.9932 16.9615 16.2074 16.9262 16.4118 16.8574C16.715 16.7574 16.9873 16.5809 17.2026 16.3451C17.4179 16.1093 17.5688 15.822 17.6408 15.511ZM10.6108 9.91491L10.4739 9.77856L10.6108 9.90539V9.91491Z" fill="white"/>
</g>
</g>
<defs>
<clipPath id="clip0_689_469">
<rect width="27" height="27" fill="white"/>
</clipPath>
</defs>
</svg>
