<?xml version="1.0" standalone="no"?>
<!DOCTYPE svg PUBLIC "-//W3C//DTD SVG 20010904//EN"
 "http://www.w3.org/TR/2001/REC-SVG-20010904/DTD/svg10.dtd">
<svg version="1.0" xmlns="http://www.w3.org/2000/svg"
 width="120.000000pt" height="120.000000pt" viewBox="0 0 120.000000 120.000000"
 preserveAspectRatio="xMidYMid meet">
<metadata>
Created by potrace 1.14, written by Peter Selinger 2001-2017
</metadata>
<g transform="translate(0.000000,120.000000) scale(0.100000,-0.100000)"
fill="#000000" stroke="none">
<path d="M440 1176 c-175 -51 -305 -161 -382 -322 -16 -34 -31 -72 -34 -85 -3
-13 -8 -35 -12 -49 -8 -33 -8 -185 0 -235 19 -111 75 -213 167 -306 125 -125
268 -181 446 -175 254 9 470 175 548 421 33 103 30 273 -5 367 -38 100 -85
172 -160 243 -151 144 -372 198 -568 141z"/>
</g>
</svg>
